<?xml version="1.0" ?><svg enable-background="new 0 0 64 64" id="Layer_1" version="1.1" viewBox="0 0 64 64" xml:space="preserve" xmlns="http://www.w3.org/2000/svg" xmlns:xlink="http://www.w3.org/1999/xlink"><g><g><path d="M16.3,52.728l0.001-0.001c0.955-0.54,2.119-0.55,3.088-0.034c8.81,4.688,13.108,4.702,14.749,4.391    c0,0,13.335-0.439,27.01-13.161l1.1-1.1c0.993-0.993,1.2-2.528,0.505-3.748v0C61.616,37.076,59,36.5,57.129,37.836l0,0l-4.26,2.39    c-2.82,1.582-5.562,3.308-8.141,5.259c-9.055,6.847-16.984,0.471-16.984,0.471c6.129,2.153,12.043,0.411,14.697-1.777    c2.426-1.921,2.343-4.228-2.361-4.545c-7.239-0.489-9.48-1.795-10.172-2.589c-0.628-0.72-1.341-1.366-2.175-1.832    C18.025,29.789,8.44,38.354,8.44,38.354l0.549,1.019l6.2,11.516l0.956,1.777C16.174,52.721,16.241,52.75,16.3,52.728l0.001,0" fill="#3D4753"/><g><g><path d="M12.834,7.051c2.219,2.222,4.183,4.188,5.931,5.938v-2.38c0-0.405,0.318-0.723,0.723-0.723      c0.405,0,0.723,0.318,0.723,0.723v3.828c1.05,1.051,2.011,2.013,2.893,2.896v-5.596c0-0.391,0.318-0.723,0.723-0.723      c0.405,0,0.723,0.333,0.723,0.723v7.044c1.098,1.099,2.057,2.059,2.893,2.895v-5.498c0-0.405,0.318-0.723,0.723-0.723      c0.405,0,0.723,0.318,0.723,0.723v6.946c1.982,1.984,3.099,3.1,3.891,3.891c0-0.001,0-0.002,0.001-0.003      c0.26-1.938,1.215-11.065-3.833-16.128C23.9,5.85,14.787,6.776,12.834,7.051c-0.004,0-0.007,0.001-0.011,0.002      C12.825,7.052,12.833,7.051,12.834,7.051z" fill="#2F7CB9"/><path d="M12.464,7.108c0.011-0.001,0.039-0.005,0.078-0.011C12.512,7.102,12.479,7.108,12.464,7.108z" fill="#2F7CB9"/><path d="M11.854,7.779c0.004-0.023,0.005-0.034,0.007-0.048C11.86,7.743,11.857,7.761,11.854,7.779z" fill="#2F7CB9"/><path d="M27.874,24.134h-6.939c-0.405,0-0.723-0.318-0.723-0.723c0-0.405,0.318-0.723,0.723-0.723h5.492      c-0.836-0.836-1.796-1.794-2.895-2.893h-7.037c-0.391,0-0.723-0.318-0.723-0.723c0-0.405,0.332-0.723,0.723-0.723h5.59      c-0.883-0.882-1.845-1.843-2.895-2.893h-3.823c-0.405,0-0.723-0.318-0.723-0.723c0-0.405,0.318-0.723,0.723-0.723h2.376      c-1.748-1.747-3.714-3.711-5.934-5.93l0-0.001c0,0,0,0.001,0,0.001c-0.275,1.968-1.215,11.066,3.833,16.114      c3.414,3.399,8.65,4.079,12.309,4.079c1.778,0,3.181-0.159,3.818-0.246C30.976,27.234,29.86,26.119,27.874,24.134z" fill="#2F7CB9"/></g><g><path d="M39.113,27.015c0.792-0.791,1.908-1.907,3.891-3.891v-6.946c0-0.405,0.318-0.723,0.723-0.723      c0.405,0,0.723,0.318,0.723,0.723v5.498c0.836-0.837,1.795-1.796,2.893-2.895v-7.044c0-0.391,0.318-0.723,0.723-0.723      c0.405,0,0.723,0.333,0.723,0.723v5.596c0.882-0.883,1.843-1.845,2.893-2.896v-3.828c0-0.405,0.318-0.723,0.723-0.723      c0.405,0,0.723,0.318,0.723,0.723v2.38c1.748-1.75,3.712-3.716,5.931-5.938c0.001,0,0.009,0.001,0.011,0.002      c-0.004-0.001-0.006-0.001-0.011-0.002c-1.953-0.275-11.065-1.2-16.114,3.833c-5.048,5.063-4.094,14.19-3.833,16.128      C39.112,27.013,39.113,27.014,39.113,27.015z" fill="#2F7CB9"/><path d="M59.351,7.097c0.039,0.006,0.067,0.01,0.078,0.011C59.415,7.108,59.381,7.102,59.351,7.097z" fill="#2F7CB9"/><path d="M60.086,8.078c0,0,0-0.001,0-0.001L60.086,8.078c-2.22,2.219-4.186,4.183-5.934,5.931h2.376      c0.405,0,0.723,0.318,0.723,0.723c0,0.405-0.318,0.723-0.723,0.723h-3.823c-1.05,1.05-2.012,2.011-2.895,2.893h5.59      c0.391,0,0.723,0.318,0.723,0.723c0,0.405-0.332,0.723-0.723,0.723h-7.037c-1.099,1.098-2.058,2.057-2.895,2.893h5.492      c0.405,0,0.723,0.318,0.723,0.723c0,0.405-0.318,0.723-0.723,0.723H44.02c-1.986,1.985-3.103,3.1-3.894,3.891      c0.637,0.087,2.039,0.246,3.818,0.246c3.659,0,8.896-0.68,12.309-4.079C61.301,19.143,60.361,10.045,60.086,8.078z" fill="#2F7CB9"/><path d="M60.039,7.779c-0.003-0.018-0.006-0.036-0.007-0.048C60.034,7.745,60.035,7.756,60.039,7.779z" fill="#2F7CB9"/></g></g><path d="M34.212,36.194c0.779,0.201,1.876,0.422,3.394,0.615c1.594-17.845-5.972-28.52-6.352-29.042    C31.255,7.767,36.043,18.744,34.212,36.194z" fill="#2F7CB9"/></g><polygon fill="#2F7CB9" points="6.926,39.07 14.753,53.419 8.81,57.116 0.838,42.186  "/></g></svg>