<?xml version="1.0" encoding="UTF-8" ?>
<!DOCTYPE svg PUBLIC "-//W3C//DTD SVG 1.1//EN" "http://www.w3.org/Graphics/SVG/1.1/DTD/svg11.dtd">
<svg width="128pt" height="128pt" viewBox="0 0 128 128" version="1.1" xmlns="http://www.w3.org/2000/svg">
<g id="#4cff00ff">
<path fill="#4cff00" opacity="1.00" d=" M 25.02 13.88 C 35.38 12.82 46.92 12.89 55.64 19.38 C 60.77 22.91 63.30 28.88 65.17 34.59 C 66.58 41.01 66.53 47.61 66.10 54.14 C 62.67 52.36 60.36 49.17 57.55 46.63 C 57.08 41.19 58.47 35.48 56.50 30.26 C 53.98 34.35 55.91 39.50 55.16 44.01 C 52.95 42.00 50.84 39.86 48.71 37.76 C 48.65 32.45 48.96 27.11 48.43 21.81 C 47.94 22.19 46.97 22.94 46.49 23.32 C 46.49 27.26 46.58 31.21 46.28 35.15 C 44.05 33.06 41.90 30.89 39.72 28.76 C 39.74 25.60 39.84 22.43 39.36 19.30 C 37.50 21.06 39.42 24.89 37.01 25.75 C 32.76 22.08 28.96 17.89 25.02 13.88 Z" />
<path fill="#4cff00" opacity="1.00" d=" M 88.95 18.82 C 97.72 12.90 108.82 12.84 118.97 13.88 C 114.73 17.95 110.98 22.58 106.25 26.09 C 105.80 23.81 105.63 21.48 105.12 19.21 C 102.76 22.07 103.78 25.91 103.60 29.29 C 101.66 31.29 99.69 33.25 97.61 35.11 C 97.11 31.18 97.70 27.18 97.11 23.28 C 96.72 22.86 95.95 22.04 95.57 21.63 C 95.03 26.96 95.35 32.32 95.30 37.67 C 93.13 39.80 91.00 41.96 88.76 44.01 C 88.49 39.81 88.62 35.60 88.55 31.39 C 88.01 31.37 86.95 31.32 86.41 31.30 C 86.19 36.19 86.55 41.09 86.23 45.97 C 84.27 49.53 80.68 51.96 77.88 54.87 C 77.29 47.77 77.26 40.58 78.84 33.59 C 80.79 27.91 83.58 22.00 88.95 18.82 Z" />
<path fill="#4cff00" opacity="1.00" d=" M 22.87 15.96 C 28.11 18.92 31.66 24.07 36.02 28.12 C 34.06 28.27 32.09 28.35 30.13 28.44 C 30.14 28.97 30.16 30.04 30.17 30.58 C 33.02 30.59 35.87 30.59 38.72 30.62 C 40.80 32.80 42.96 34.91 44.96 37.17 C 40.42 37.38 35.89 37.18 31.35 37.35 C 32.21 38.04 32.83 39.39 34.11 39.31 C 38.52 39.52 42.94 39.32 47.36 39.36 C 49.35 41.30 51.32 43.28 53.11 45.42 C 49.32 45.75 45.50 45.40 41.72 45.76 L 40.47 47.55 C 45.54 47.85 50.62 47.71 55.69 47.69 C 58.50 50.49 61.33 53.26 64.05 56.14 C 61.37 56.50 58.67 56.68 56.00 57.12 C 46.76 56.45 36.56 55.03 30.02 47.70 C 22.91 38.84 22.09 26.85 22.87 15.96 Z" />
<path fill="#4cff00" opacity="1.00" d=" M 107.85 28.16 C 111.85 23.99 115.90 19.86 120.14 15.93 C 120.78 18.92 121.54 21.93 121.29 25.02 C 120.44 33.83 118.86 43.71 111.53 49.62 C 105.24 55.65 96.19 56.32 88.00 57.12 C 85.29 56.68 82.56 56.51 79.85 56.15 C 82.54 53.27 85.37 50.53 88.13 47.72 C 93.30 47.65 98.48 47.93 103.63 47.48 C 100.42 43.89 94.97 46.38 90.76 45.40 C 92.57 43.31 94.52 41.35 96.47 39.38 C 101.25 39.22 106.09 39.72 110.84 39.12 C 111.27 38.72 112.13 37.93 112.56 37.54 C 108.04 37.08 103.50 37.40 98.98 37.16 C 100.97 34.89 103.12 32.76 105.23 30.60 C 108.06 30.59 110.89 30.59 113.72 30.59 C 113.73 30.04 113.75 28.95 113.76 28.41 C 111.79 28.35 109.82 28.28 107.85 28.16 Z" />
<path fill="#4cff00" opacity="1.00" d=" M 63.26 16.78 C 67.30 21.67 69.41 27.83 71.42 33.77 C 74.62 43.53 75.70 53.79 76.32 63.98 C 76.42 67.25 75.70 70.46 75.30 73.69 C 73.41 73.50 71.53 73.32 69.63 73.22 C 69.17 72.96 68.24 72.46 67.78 72.20 C 69.25 66.23 68.57 60.03 68.73 53.95 C 68.93 47.34 67.90 40.78 67.02 34.25 C 66.37 28.30 64.15 22.69 63.26 16.78 Z" />
</g>
<g id="#3d4753ff">
<path fill="#3d4753" opacity="1.00" d=" M 16.84 76.67 C 26.20 69.20 39.02 64.18 50.87 68.38 C 55.13 69.52 58.19 72.75 61.58 75.32 C 68.31 78.91 76.21 78.50 83.52 79.80 C 85.81 80.16 89.01 82.07 87.77 84.82 C 85.87 88.60 81.74 90.59 77.96 92.04 C 70.74 94.69 62.87 94.02 55.55 92.16 C 61.07 95.48 67.42 97.86 73.96 97.19 C 80.32 96.80 86.01 93.59 91.03 89.88 C 98.07 84.72 105.71 80.46 113.30 76.18 C 115.05 75.25 116.87 74.17 118.92 74.22 C 122.92 74.22 126.78 77.91 126.23 82.03 C 125.90 84.60 123.80 86.36 122.05 88.06 C 107.63 101.32 89.63 111.38 70.03 113.99 C 61.42 115.39 53.03 112.08 45.34 108.61 C 41.19 106.78 37.04 103.44 32.25 105.20 C 27.05 95.73 22.04 86.15 16.84 76.67 Z" />
</g>
</svg>
